<?xml version="1.0" encoding="UTF-8" standalone="no"?>
<!-- Created with Inkscape (http://www.inkscape.org/) -->

<svg
   xmlns:dc="http://purl.org/dc/elements/1.1/"
   xmlns:cc="http://creativecommons.org/ns#"
   xmlns:rdf="http://www.w3.org/1999/02/22-rdf-syntax-ns#"
   xmlns:svg="http://www.w3.org/2000/svg"
   xmlns="http://www.w3.org/2000/svg"
   version="1.1"
   width="800"
   height="400"
   id="svg2">
  <defs
     id="defs4" />
  <metadata
     id="metadata7">
    <rdf:RDF>
      <cc:Work
         rdf:about="">
        <dc:format>image/svg+xml</dc:format>
        <dc:type
           rdf:resource="http://purl.org/dc/dcmitype/StillImage" />
        <dc:title></dc:title>
      </cc:Work>
    </rdf:RDF>
  </metadata>
  <rect
     width="371.8"
     height="206.7"
     x="96.97"
     y="128.4"
     id="rect15737"
     style="fill:#ffffff;fill-opacity:1;fill-rule:nonzero;stroke:#000000;stroke-width:1.0938;stroke-linecap:butt;stroke-linejoin:miter;stroke-miterlimit:4;stroke-opacity:1;stroke-dasharray:none;stroke-dashoffset:0" />
  <rect
     width="371.8"
     height="41.6"
     x="96.97"
     y="128.4"
     id="rect15737-5"
     style="fill:#e6e6ff;fill-opacity:1;stroke:#000000;stroke-width:1.0938;stroke-linecap:butt;stroke-linejoin:miter;stroke-miterlimit:4;stroke-opacity:1;stroke-dasharray:none;stroke-dashoffset:0" />
  <path
     d="m 96.97,211.4 371.63,0"
     id="path15739-3"
     style="fill:none;stroke:#000000;stroke-width:1.0938px;stroke-linecap:butt;stroke-linejoin:miter;stroke-opacity:1" />
  <path
     d="m 96.97,253.1 371.63,0"
     id="path15739-1"
     style="fill:none;stroke:#000000;stroke-width:1.0938px;stroke-linecap:butt;stroke-linejoin:miter;stroke-opacity:1" />
  <path
     d="m 96.97,293.5 371.63,0"
     id="path15739-6"
     style="fill:none;stroke:#000000;stroke-width:1.0938px;stroke-linecap:butt;stroke-linejoin:miter;stroke-opacity:1" />
  <path
     d="m 221.5,128.4 0,206.7"
     id="path15773"
     style="fill:none;stroke:#000000;stroke-width:1.0938px;stroke-linecap:butt;stroke-linejoin:miter;stroke-opacity:1" />
  <path
     d="m 345,128.4 0,206.7"
     id="path15773-1"
     style="fill:none;stroke:#000000;stroke-width:1.0938px;stroke-linecap:butt;stroke-linejoin:miter;stroke-opacity:1" />
  <g
     transform="matrix(1.094,0,0,1.094,329,21.5)"
     id="text15793"
     style="font-size:21.2887px;font-style:normal;font-variant:normal;font-weight:normal;font-stretch:normal;text-align:start;line-height:100%;letter-spacing:0px;word-spacing:0px;writing-mode:lr-tb;text-anchor:start;fill:#ff0000;fill-opacity:1;stroke:none;font-family:Arial;-inkscape-font-specification:Arial">
    <path
       d="m -278.4,30.12 0,-15.24 6.8,0 c 1.3,0 2.4,0.14 3.1,0.41 0.7,0.28 1.2,0.76 1.7,1.45 0.4,0.7 0.6,1.46 0.6,2.3 0,1.08 -0.3,1.99 -1,2.74 -0.7,0.74 -1.8,1.21 -3.3,1.41 0.5,0.26 0.9,0.51 1.2,0.76 0.6,0.54 1.2,1.21 1.7,2.03 l 2.7,4.14 -2.6,0 -2,-3.17 c -0.6,-0.91 -1.1,-1.61 -1.5,-2.1 -0.3,-0.48 -0.7,-0.82 -1,-1.02 -0.3,-0.19 -0.6,-0.33 -0.9,-0.4 -0.2,-0.1 -0.6,-0.1 -1.1,-0.1 l -2.4,0 0,6.76 z m 2,-8.51 4.4,0 c 0.9,0 1.6,-0.1 2.1,-0.29 0.6,-0.19 0.9,-0.49 1.2,-0.91 0.3,-0.42 0.4,-0.88 0.4,-1.37 0,-0.72 -0.2,-1.31 -0.8,-1.78 -0.5,-0.46 -1.3,-0.69 -2.4,-0.69 l -4.9,0 z"
       id="path16071"
       style="fill:#ff0000" />
    <path
       d="m -255.7,26.57 1.9,0.24 c -0.3,1.13 -0.8,2 -1.7,2.63 -0.8,0.62 -1.8,0.93 -3.1,0.93 -1.6,0 -2.9,-0.49 -3.9,-1.49 -0.9,-0.99 -1.4,-2.39 -1.4,-4.18 0,-1.86 0.5,-3.3 1.4,-4.33 1,-1.02 2.2,-1.54 3.8,-1.54 1.4,0 2.6,0.51 3.6,1.51 0.9,1.01 1.4,2.42 1.4,4.24 0,0.11 0,0.28 0,0.5 l -8.3,0 c 0.1,1.21 0.5,2.14 1.1,2.79 0.6,0.64 1.4,0.96 2.3,0.96 0.7,0 1.3,-0.18 1.7,-0.54 0.5,-0.36 0.9,-0.93 1.2,-1.72 z m -6.2,-3.03 6.2,0 c -0.1,-0.93 -0.3,-1.62 -0.7,-2.09 -0.6,-0.72 -1.4,-1.08 -2.3,-1.08 -0.9,0 -1.6,0.29 -2.2,0.87 -0.6,0.57 -0.9,1.34 -1,2.3 z"
       id="path16073"
       style="fill:#ff0000" />
    <path
       d="m -251.5,30.12 0,-15.24 1.9,0 0,15.24 z"
       id="path16075"
       style="fill:#ff0000" />
    <path
       d="m -239.5,28.76 c -0.7,0.59 -1.3,1.01 -2,1.25 -0.6,0.24 -1.3,0.36 -2,0.36 -1.2,0 -2.2,-0.29 -2.8,-0.89 -0.7,-0.59 -1,-1.35 -1,-2.27 0,-0.54 0.1,-1.03 0.4,-1.48 0.2,-0.45 0.5,-0.8 0.9,-1.07 0.4,-0.28 0.9,-0.48 1.4,-0.62 0.3,-0.1 0.9,-0.19 1.6,-0.28 1.5,-0.18 2.7,-0.39 3.4,-0.64 0,-0.26 0,-0.42 0,-0.49 0,-0.76 -0.2,-1.3 -0.5,-1.61 -0.5,-0.43 -1.2,-0.64 -2.2,-0.64 -0.9,0 -1.5,0.16 -1.9,0.47 -0.4,0.3 -0.8,0.85 -1,1.63 l -1.8,-0.25 c 0.2,-0.78 0.5,-1.41 0.8,-1.89 0.4,-0.49 1,-0.86 1.7,-1.12 0.7,-0.26 1.5,-0.39 2.5,-0.39 0.9,0 1.7,0.11 2.3,0.34 0.6,0.22 1,0.5 1.3,0.83 0.3,0.34 0.5,0.76 0.6,1.28 0,0.32 0.1,0.89 0.1,1.72 l 0,2.5 c 0,1.74 0,2.84 0.1,3.3 0.1,0.46 0.2,0.9 0.5,1.32 l -2,0 c -0.2,-0.39 -0.3,-0.84 -0.4,-1.36 z m -0.1,-4.18 c -0.7,0.28 -1.7,0.52 -3.1,0.71 -0.8,0.11 -1.3,0.23 -1.6,0.37 -0.3,0.14 -0.6,0.34 -0.8,0.61 -0.1,0.27 -0.2,0.56 -0.2,0.89 0,0.5 0.2,0.92 0.6,1.25 0.3,0.33 0.9,0.5 1.6,0.5 0.7,0 1.4,-0.16 1.9,-0.48 0.6,-0.31 1,-0.74 1.3,-1.29 0.2,-0.42 0.3,-1.05 0.3,-1.87 z"
       id="path16077"
       style="fill:#ff0000" />
    <path
       d="m -230.7,28.45 0.2,1.65 c -0.5,0.11 -1,0.17 -1.4,0.17 -0.7,0 -1.2,-0.11 -1.6,-0.32 -0.3,-0.22 -0.6,-0.5 -0.8,-0.85 -0.1,-0.35 -0.2,-1.09 -0.2,-2.21 l 0,-6.35 -1.4,0 0,-1.46 1.4,0 0,-2.73 1.9,-1.12 0,3.85 1.9,0 0,1.46 -1.9,0 0,6.45 c 0,0.54 0,0.88 0.1,1.03 0,0.16 0.2,0.28 0.3,0.37 0.1,0.1 0.4,0.13 0.6,0.13 0.2,0 0.5,0 0.9,-0.1 z"
       id="path16079"
       style="fill:#ff0000" />
    <path
       d="m -228.9,17.04 0,-2.16 1.9,0 0,2.16 z m 0,13.08 0,-11.04 1.9,0 0,11.04 z"
       id="path16081"
       style="fill:#ff0000" />
    <path
       d="m -224.9,24.6 c 0,-2.04 0.6,-3.56 1.7,-4.54 1,-0.82 2.1,-1.23 3.5,-1.23 1.5,0 2.8,0.5 3.7,1.5 1,0.99 1.5,2.36 1.5,4.12 0,1.42 -0.2,2.54 -0.7,3.35 -0.4,0.81 -1,1.45 -1.8,1.9 -0.8,0.45 -1.7,0.67 -2.7,0.67 -1.5,0 -2.8,-0.49 -3.7,-1.48 -1,-1 -1.5,-2.42 -1.5,-4.29 z m 1.9,0 c 0,1.42 0.4,2.48 1,3.18 0.6,0.7 1.4,1.05 2.3,1.05 0.9,0 1.7,-0.35 2.3,-1.06 0.6,-0.7 0.9,-1.78 0.9,-3.23 0,-1.36 -0.3,-2.4 -0.9,-3.1 -0.6,-0.71 -1.4,-1.06 -2.3,-1.06 -0.9,0 -1.7,0.35 -2.3,1.05 -0.6,0.7 -1,1.76 -1,3.17 z"
       id="path16083"
       style="fill:#ff0000" />
    <path
       d="m -212.3,30.12 0,-11.04 1.7,0 0,1.57 c 0.8,-1.21 1.9,-1.82 3.5,-1.82 0.6,0 1.2,0.12 1.8,0.36 0.6,0.24 1,0.56 1.3,0.94 0.2,0.39 0.4,0.85 0.5,1.39 0.1,0.34 0.1,0.95 0.1,1.81 l 0,6.79 -1.8,0 0,-6.71 c 0,-0.76 -0.1,-1.33 -0.2,-1.71 -0.2,-0.38 -0.5,-0.68 -0.8,-0.91 -0.4,-0.22 -0.8,-0.33 -1.3,-0.33 -0.8,0 -1.5,0.25 -2.1,0.75 -0.6,0.51 -0.9,1.47 -0.9,2.88 l 0,6.03 z"
       id="path16085"
       style="fill:#ff0000" />
    <path
       d="m -192.9,26.57 1.9,0.24 c -0.3,1.13 -0.9,2 -1.7,2.63 -0.8,0.62 -1.9,0.93 -3.1,0.93 -1.7,0 -2.9,-0.49 -3.9,-1.49 -0.9,-0.99 -1.4,-2.39 -1.4,-4.18 0,-1.86 0.5,-3.3 1.4,-4.33 1,-1.02 2.2,-1.54 3.8,-1.54 1.4,0 2.6,0.51 3.6,1.51 0.9,1.01 1.4,2.42 1.4,4.24 0,0.11 0,0.28 0,0.5 l -8.3,0 c 0.1,1.21 0.4,2.14 1.1,2.79 0.6,0.64 1.3,0.96 2.3,0.96 0.7,0 1.2,-0.18 1.7,-0.54 0.5,-0.36 0.9,-0.93 1.2,-1.72 z m -6.2,-3.03 6.2,0 c -0.1,-0.93 -0.3,-1.62 -0.7,-2.09 -0.6,-0.72 -1.4,-1.08 -2.3,-1.08 -0.9,0 -1.6,0.29 -2.2,0.87 -0.6,0.57 -0.9,1.34 -1,2.3 z"
       id="path16087"
       style="fill:#ff0000" />
    <path
       d="m -188.6,30.12 0,-11.04 1.7,0 0,1.57 c 0.8,-1.21 1.9,-1.82 3.5,-1.82 0.6,0 1.2,0.12 1.8,0.36 0.6,0.24 1,0.56 1.3,0.94 0.2,0.39 0.4,0.85 0.5,1.39 0.1,0.34 0.1,0.95 0.1,1.81 l 0,6.79 -1.8,0 0,-6.71 c 0,-0.76 -0.1,-1.33 -0.2,-1.71 -0.2,-0.38 -0.5,-0.68 -0.8,-0.91 -0.4,-0.22 -0.8,-0.33 -1.3,-0.33 -0.8,0 -1.5,0.25 -2.1,0.75 -0.6,0.51 -0.9,1.47 -0.9,2.88 l 0,6.03 z"
       id="path16089"
       style="fill:#ff0000" />
    <path
       d="m -176.8,30.12 0,-11.04 1.7,0 0,1.57 c 0.8,-1.21 2,-1.82 3.5,-1.82 0.7,0 1.3,0.12 1.9,0.36 0.5,0.24 0.9,0.56 1.2,0.94 0.3,0.39 0.5,0.85 0.6,1.39 0.1,0.34 0.1,0.95 0.1,1.81 l 0,6.79 -1.9,0 0,-6.71 c 0,-0.76 -0.1,-1.33 -0.2,-1.71 -0.1,-0.38 -0.4,-0.68 -0.8,-0.91 -0.3,-0.22 -0.8,-0.33 -1.3,-0.33 -0.8,0 -1.5,0.25 -2,0.75 -0.6,0.51 -0.9,1.47 -0.9,2.88 l 0,6.03 z"
       id="path16091"
       style="fill:#ff0000" />
    <path
       d="m -157.7,28.76 c -0.7,0.59 -1.4,1.01 -2,1.25 -0.7,0.24 -1.4,0.36 -2.1,0.36 -1.2,0 -2.1,-0.29 -2.8,-0.89 -0.6,-0.59 -1,-1.35 -1,-2.27 0,-0.54 0.2,-1.03 0.4,-1.48 0.3,-0.45 0.6,-0.8 1,-1.07 0.4,-0.28 0.8,-0.48 1.3,-0.62 0.4,-0.1 0.9,-0.19 1.7,-0.28 1.5,-0.18 2.6,-0.39 3.3,-0.64 0,-0.26 0,-0.42 0,-0.49 0,-0.76 -0.1,-1.3 -0.5,-1.61 -0.5,-0.43 -1.2,-0.64 -2.1,-0.64 -0.9,0 -1.6,0.16 -2,0.47 -0.4,0.3 -0.7,0.85 -0.9,1.63 l -1.8,-0.25 c 0.1,-0.78 0.4,-1.41 0.8,-1.89 0.4,-0.49 0.9,-0.86 1.6,-1.12 0.8,-0.26 1.6,-0.39 2.5,-0.39 1,0 1.7,0.11 2.3,0.34 0.6,0.22 1.1,0.5 1.3,0.83 0.3,0.34 0.5,0.76 0.6,1.28 0.1,0.32 0.1,0.89 0.1,1.72 l 0,2.5 c 0,1.74 0,2.84 0.1,3.3 0.1,0.46 0.3,0.9 0.5,1.32 l -2,0 c -0.1,-0.39 -0.3,-0.84 -0.3,-1.36 z m -0.2,-4.18 c -0.7,0.28 -1.7,0.52 -3,0.71 -0.8,0.11 -1.4,0.23 -1.7,0.37 -0.3,0.14 -0.5,0.34 -0.7,0.61 -0.2,0.27 -0.3,0.56 -0.3,0.89 0,0.5 0.2,0.92 0.6,1.25 0.4,0.33 0.9,0.5 1.7,0.5 0.7,0 1.3,-0.16 1.9,-0.48 0.5,-0.31 1,-0.74 1.2,-1.29 0.2,-0.42 0.3,-1.05 0.3,-1.87 z"
       id="path16093"
       style="fill:#ff0000" />
    <path
       d="m -153.1,30.12 0,-11.04 1.7,0 0,1.55 c 0.3,-0.54 0.8,-0.97 1.4,-1.3 0.6,-0.33 1.2,-0.5 1.9,-0.5 0.9,0 1.5,0.17 2.1,0.51 0.5,0.34 0.8,0.82 1.1,1.43 0.8,-1.29 2,-1.94 3.4,-1.94 1.1,0 1.9,0.31 2.5,0.91 0.6,0.61 0.9,1.54 0.9,2.8 l 0,7.58 -1.9,0 0,-6.95 c 0,-0.75 0,-1.29 -0.2,-1.62 -0.1,-0.33 -0.3,-0.59 -0.6,-0.79 -0.3,-0.2 -0.7,-0.3 -1.1,-0.3 -0.8,0 -1.5,0.25 -2,0.77 -0.5,0.52 -0.7,1.34 -0.7,2.48 l 0,6.41 -1.9,0 0,-7.17 c 0,-0.83 -0.2,-1.45 -0.5,-1.87 -0.3,-0.42 -0.8,-0.62 -1.5,-0.62 -0.5,0 -1,0.13 -1.4,0.41 -0.5,0.28 -0.8,0.68 -1,1.22 -0.2,0.53 -0.3,1.3 -0.3,2.31 l 0,5.72 z"
       id="path16095"
       style="fill:#ff0000" />
    <path
       d="m -127.8,26.57 2,0.24 c -0.3,1.13 -0.9,2 -1.7,2.63 -0.9,0.62 -1.9,0.93 -3.2,0.93 -1.6,0 -2.9,-0.49 -3.8,-1.49 -1,-0.99 -1.4,-2.39 -1.4,-4.18 0,-1.86 0.4,-3.3 1.4,-4.33 0.9,-1.02 2.2,-1.54 3.7,-1.54 1.5,0 2.7,0.51 3.6,1.51 1,1.01 1.4,2.42 1.4,4.24 0,0.11 0,0.28 0,0.5 l -8.2,0 c 0.1,1.21 0.4,2.14 1,2.79 0.6,0.64 1.4,0.96 2.3,0.96 0.7,0 1.3,-0.18 1.8,-0.54 0.5,-0.36 0.8,-0.93 1.1,-1.72 z m -6.1,-3.03 6.2,0 c -0.1,-0.93 -0.4,-1.62 -0.8,-2.09 -0.6,-0.72 -1.3,-1.08 -2.3,-1.08 -0.8,0 -1.6,0.29 -2.1,0.87 -0.6,0.57 -0.9,1.34 -1,2.3 z"
       id="path16097"
       style="fill:#ff0000" />
  </g>
  <g
     transform="matrix(1.094,0,0,1.094,329,21.5)"
     id="text15793-4"
     style="font-size:21.2887px;font-style:normal;font-variant:normal;font-weight:normal;font-stretch:normal;text-align:start;line-height:100%;letter-spacing:0px;word-spacing:0px;writing-mode:lr-tb;text-anchor:start;fill:#ff0000;fill-opacity:1;stroke:none;font-family:Arial;-inkscape-font-specification:Arial">
    <path
       d="m -80.48,20.65 5.85,-15.237 2.17,0 6.24,15.237 -2.3,0 -1.78,-4.61 -6.37,0 -1.67,4.61 z m 4.39,-6.26 5.17,0 -1.59,-4.22 C -73,8.892 -73.36,7.838 -73.59,7.014 c -0.2,0.977 -0.47,1.947 -0.82,2.91 z"
       id="path16100"
       style="fill:#ff0000" />
    <path
       d="m -60.74,18.98 0.27,1.65 c -0.53,0.11 -1,0.17 -1.42,0.17 -0.68,0 -1.2,-0.11 -1.58,-0.33 -0.37,-0.21 -0.63,-0.49 -0.79,-0.84 -0.15,-0.35 -0.23,-1.09 -0.23,-2.21 l 0,-6.35 -1.37,0 0,-1.458 1.37,0 0,-2.734 1.87,-1.122 0,3.856 1.88,0 0,1.458 -1.88,0 0,6.45 c 0,0.54 0,0.88 0.1,1.03 0.1,0.15 0.18,0.28 0.33,0.37 0.15,0.1 0.36,0.13 0.64,0.13 0.2,0 0.48,0 0.82,-0.1 z"
       id="path16102"
       style="fill:#ff0000" />
    <path
       d="m -54.84,18.98 0.27,1.65 c -0.53,0.11 -1,0.17 -1.41,0.17 -0.68,0 -1.21,-0.11 -1.58,-0.33 -0.38,-0.21 -0.64,-0.49 -0.79,-0.84 -0.15,-0.35 -0.23,-1.09 -0.23,-2.21 l 0,-6.35 -1.37,0 0,-1.458 1.37,0 0,-2.734 1.86,-1.122 0,3.856 1.88,0 0,1.458 -1.88,0 0,6.45 c 0,0.54 0,0.88 0.1,1.03 0.1,0.15 0.17,0.28 0.32,0.37 0.15,0.1 0.36,0.13 0.64,0.13 0.21,0 0.48,0 0.82,-0.1 z"
       id="path16104"
       style="fill:#ff0000" />
    <path
       d="m -53.04,20.65 0,-11.038 1.68,0 0,1.678 c 0.43,-0.79 0.83,-1.303 1.19,-1.553 0.37,-0.249 0.77,-0.374 1.2,-0.374 0.63,0 1.28,0.201 1.93,0.603 l -0.65,1.734 c -0.45,-0.27 -0.91,-0.4 -1.37,-0.4 -0.41,0 -0.78,0.12 -1.1,0.37 -0.33,0.24 -0.56,0.58 -0.7,1.02 -0.21,0.66 -0.31,1.39 -0.31,2.18 l 0,5.78 z"
       id="path16106"
       style="fill:#ff0000" />
    <path
       d="m -45.9,7.565 0,-2.152 1.87,0 0,2.152 z m 0,13.085 0,-11.038 1.87,0 0,11.038 z"
       id="path16108"
       style="fill:#ff0000" />
    <path
       d="m -39.44,20.65 -1.74,0 0,-15.237 1.87,0 0,5.437 c 0.79,-0.992 1.8,-1.487 3.03,-1.487 0.67,0 1.32,0.137 1.92,0.41 0.61,0.277 1.11,0.657 1.5,1.157 0.39,0.49 0.7,1.09 0.92,1.79 0.22,0.7 0.33,1.45 0.33,2.25 0,1.89 -0.46,3.35 -1.4,4.38 -0.94,1.03 -2.06,1.55 -3.37,1.55 -1.3,0 -2.32,-0.54 -3.06,-1.63 z m 0,-5.6 c 0,1.32 0.19,2.28 0.55,2.87 0.58,0.96 1.38,1.44 2.39,1.44 0.81,0 1.52,-0.35 2.12,-1.06 0.59,-0.71 0.89,-1.77 0.89,-3.18 0,-1.44 -0.29,-2.5 -0.86,-3.19 -0.57,-0.69 -1.26,-1.03 -2.07,-1.03 -0.82,0 -1.53,0.36 -2.12,1.07 -0.6,0.71 -0.9,1.73 -0.9,3.08 z"
       id="path16110"
       style="fill:#ff0000" />
    <path
       d="m -22.08,20.65 0,-1.62 c -0.86,1.25 -2.03,1.87 -3.51,1.87 -0.65,0 -1.26,-0.12 -1.82,-0.37 -0.57,-0.25 -0.99,-0.57 -1.26,-0.94 -0.27,-0.38 -0.47,-0.84 -0.58,-1.39 -0.1,-0.37 -0.11,-0.95 -0.11,-1.75 l 0,-6.838 1.87,0 0,6.118 c 0,0.98 0,1.64 0.11,1.98 0.12,0.49 0.37,0.88 0.75,1.16 0.38,0.28 0.86,0.42 1.42,0.42 0.56,0 1.08,-0.14 1.58,-0.43 0.49,-0.29 0.84,-0.68 1.04,-1.18 0.21,-0.49 0.31,-1.21 0.31,-2.15 l 0,-5.918 1.87,0 0,11.038 z"
       id="path16112"
       style="fill:#ff0000" />
    <path
       d="m -13.38,18.98 0.27,1.65 c -0.53,0.11 -1,0.17 -1.42,0.17 -0.68,0 -1.2,-0.11 -1.58,-0.33 -0.37,-0.21 -0.64,-0.49 -0.79,-0.84 -0.15,-0.35 -0.23,-1.09 -0.23,-2.21 l 0,-6.35 -1.37,0 0,-1.458 1.37,0 0,-2.734 1.86,-1.122 0,3.856 1.89,0 0,1.458 -1.89,0 0,6.45 c 0,0.54 0,0.88 0.1,1.03 0.1,0.15 0.18,0.28 0.33,0.37 0.14,0.1 0.36,0.13 0.63,0.13 0.21,0 0.49,0 0.83,-0.1 z"
       id="path16114"
       style="fill:#ff0000" />
    <path
       d="m -4.008,17.1 1.933,0.24 c -0.305,1.13 -0.869,2 -1.694,2.63 -0.825,0.62 -1.878,0.93 -3.16,0.93 -1.615,0 -2.895,-0.5 -3.841,-1.49 -0.95,-0.99 -1.42,-2.39 -1.42,-4.18 0,-1.86 0.48,-3.3 1.44,-4.33 0.952,-1.024 2.192,-1.537 3.717,-1.537 1.476,0 2.682,0.502 3.617,1.507 0.936,1 1.404,2.42 1.404,4.24 0,0.11 0,0.28 -0.01,0.5 l -8.238,0 c 0.1,1.21 0.418,2.14 1.035,2.79 0.616,0.64 1.386,0.96 2.307,0.96 0.686,0 1.272,-0.18 1.757,-0.54 0.485,-0.36 0.87,-0.93 1.154,-1.72 z m -6.142,-3.03 6.163,0 C -4.07,13.14 -4.306,12.45 -4.694,11.98 -5.29,11.26 -6.063,10.9 -7.012,10.9 c -0.86,0 -1.582,0.29 -2.168,0.86 -0.585,0.58 -0.91,1.35 -0.97,2.31 z"
       id="path16116"
       style="fill:#ff0000" />
    <path
       d="M 4.786,20.91 9.204,5.153 10.7,5.153 6.293,20.91 z"
       id="path16118"
       style="fill:#ff0000" />
    <path
       d="m 18.34,20.65 0,-15.237 10.28,0 0,1.798 -8.26,0 0,4.719 7.15,0 0,1.8 -7.15,0 0,6.92 z"
       id="path16120"
       style="fill:#ff0000" />
    <path
       d="m 38.57,17.1 1.93,0.24 c -0.3,1.13 -0.87,2 -1.69,2.63 -0.83,0.62 -1.88,0.93 -3.16,0.93 -1.62,0 -2.9,-0.5 -3.84,-1.49 -0.95,-0.99 -1.42,-2.39 -1.42,-4.18 0,-1.86 0.48,-3.3 1.43,-4.33 0.96,-1.024 2.2,-1.537 3.72,-1.537 1.48,0 2.69,0.502 3.62,1.507 0.94,1 1.41,2.42 1.41,4.24 0,0.11 0,0.28 0,0.5 l -8.23,0 c 0.1,1.21 0.41,2.14 1.03,2.79 0.62,0.64 1.39,0.96 2.31,0.96 0.68,0 1.27,-0.18 1.76,-0.54 0.48,-0.36 0.87,-0.93 1.15,-1.72 z m -6.14,-3.03 6.16,0 c -0.1,-0.93 -0.32,-1.62 -0.71,-2.09 -0.59,-0.72 -1.37,-1.08 -2.31,-1.08 -0.86,0 -1.59,0.29 -2.17,0.86 -0.59,0.58 -0.91,1.35 -0.97,2.31 z"
       id="path16122"
       style="fill:#ff0000" />
    <path
       d="m 42.82,20.65 0,-15.237 1.87,0 0,15.237 z"
       id="path16124"
       style="fill:#ff0000" />
    <path
       d="m 54.76,20.65 0,-1.39 c -0.7,1.09 -1.72,1.64 -3.08,1.64 -0.88,0 -1.69,-0.24 -2.43,-0.73 -0.74,-0.48 -1.31,-1.16 -1.72,-2.03 -0.4,-0.87 -0.6,-1.87 -0.6,-3 0,-1.1 0.18,-2.1 0.55,-3 0.36,-0.89 0.92,-1.58 1.65,-2.06 0.74,-0.478 1.56,-0.717 2.46,-0.717 0.67,0 1.26,0.14 1.78,0.421 0.52,0.276 0.94,0.646 1.27,1.096 l 0,-5.467 1.86,0 0,15.237 z m -5.91,-5.51 c 0,1.42 0.3,2.47 0.89,3.17 0.6,0.7 1.3,1.05 2.11,1.05 0.82,0 1.52,-0.33 2.09,-1 0.57,-0.67 0.86,-1.69 0.86,-3.06 0,-1.51 -0.3,-2.62 -0.88,-3.33 -0.58,-0.7 -1.3,-1.06 -2.15,-1.06 -0.83,0 -1.53,0.34 -2.08,1.02 -0.56,0.68 -0.84,1.75 -0.84,3.21 z"
       id="path16126"
       style="fill:#ff0000" />
    <path
       d="m 67.01,17.1 1.93,0.24 c -0.3,1.13 -0.87,2 -1.69,2.63 -0.83,0.62 -1.88,0.93 -3.16,0.93 -1.62,0 -2.9,-0.5 -3.84,-1.49 -0.95,-0.99 -1.42,-2.39 -1.42,-4.18 0,-1.86 0.48,-3.3 1.43,-4.33 0.96,-1.024 2.2,-1.537 3.72,-1.537 1.48,0 2.69,0.502 3.62,1.507 0.94,1 1.41,2.42 1.41,4.24 0,0.11 0,0.28 0,0.5 l -8.24,0 c 0.1,1.21 0.41,2.14 1.03,2.79 0.62,0.64 1.39,0.96 2.31,0.96 0.69,0 1.27,-0.18 1.76,-0.54 0.48,-0.36 0.87,-0.93 1.15,-1.72 z m -6.14,-3.03 6.16,0 c -0.1,-0.93 -0.32,-1.62 -0.71,-2.09 -0.59,-0.72 -1.37,-1.08 -2.31,-1.08 -0.86,0 -1.59,0.29 -2.17,0.86 -0.59,0.58 -0.91,1.35 -0.97,2.31 z"
       id="path16128"
       style="fill:#ff0000" />
    <path
       d="m 71.28,20.65 0,-11.038 1.69,0 0,1.678 c 0.43,-0.79 0.82,-1.303 1.19,-1.553 0.36,-0.249 0.76,-0.374 1.2,-0.374 0.63,0 1.27,0.201 1.92,0.603 L 76.64,11.7 c -0.46,-0.27 -0.92,-0.4 -1.38,-0.4 -0.41,0 -0.77,0.12 -1.1,0.37 -0.32,0.24 -0.56,0.58 -0.7,1.02 -0.2,0.66 -0.31,1.39 -0.31,2.18 l 0,5.78 z"
       id="path16130"
       style="fill:#ff0000" />
    <path
       d="m 82.91,20.91 4.42,-15.757 1.5,0 -4.41,15.757 z"
       id="path16132"
       style="fill:#ff0000" />
    <path
       d="m 95.68,15.76 1.9,-0.17 c 0.1,0.76 0.3,1.39 0.63,1.88 0.33,0.48 0.84,0.88 1.53,1.18 0.66,0.3 1.46,0.45 2.36,0.45 0.8,0 1.4,-0.11 2,-0.34 0.6,-0.23 1,-0.54 1.3,-0.94 0.3,-0.4 0.5,-0.83 0.5,-1.31 0,-0.47 -0.2,-0.89 -0.5,-1.25 -0.2,-0.35 -0.7,-0.65 -1.3,-0.9 -0.4,-0.16 -1.3,-0.4 -2.7,-0.74 -1.44,-0.34 -2.42,-0.65 -2.98,-0.95 -0.72,-0.38 -1.27,-0.86 -1.62,-1.42 -0.36,-0.57 -0.54,-1.2 -0.54,-1.898 0,-0.769 0.22,-1.488 0.66,-2.156 0.43,-0.669 1.07,-1.177 1.91,-1.523 0.84,-0.347 1.77,-0.52 2.77,-0.52 1.2,0 2.2,0.182 3,0.546 0.9,0.363 1.5,0.899 2,1.606 0.5,0.707 0.7,1.507 0.8,2.401 l -2,0.145 c -0.1,-0.963 -0.4,-1.69 -1,-2.183 -0.6,-0.492 -1.5,-0.738 -2.7,-0.738 -1.2,0 -2.1,0.224 -2.66,0.671 -0.56,0.447 -0.84,0.986 -0.84,1.616 0,0.548 0.2,1.003 0.6,1.353 0.39,0.35 1.4,0.71 3,1.08 1.7,0.38 2.8,0.7 3.4,0.98 0.9,0.41 1.6,0.92 2,1.55 0.4,0.63 0.6,1.35 0.6,2.17 0,0.81 -0.2,1.57 -0.7,2.29 -0.5,0.72 -1.1,1.28 -2,1.67 -0.9,0.4 -1.8,0.6 -2.9,0.6 -1.4,0 -2.56,-0.2 -3.49,-0.6 -0.93,-0.4 -1.66,-1.01 -2.19,-1.82 -0.53,-0.8 -0.81,-1.72 -0.84,-2.73 z"
       id="path16134"
       style="fill:#ff0000" />
    <path
       d="m 110.3,24.88 0,-15.268 1.8,0 0,1.438 c 0.4,-0.56 0.8,-0.99 1.3,-1.266 0.5,-0.281 1.1,-0.421 1.9,-0.421 0.9,0 1.7,0.242 2.4,0.727 0.8,0.49 1.3,1.17 1.7,2.05 0.3,0.89 0.5,1.86 0.5,2.91 0,1.13 -0.2,2.15 -0.6,3.05 -0.4,0.9 -1,1.6 -1.7,2.08 -0.8,0.48 -1.6,0.72 -2.5,0.72 -0.6,0 -1.2,-0.13 -1.7,-0.39 -0.5,-0.27 -0.9,-0.6 -1.2,-1 l 0,5.37 z m 1.7,-9.69 c 0,1.43 0.3,2.47 0.9,3.15 0.6,0.68 1.3,1.02 2.1,1.02 0.8,0 1.5,-0.35 2.1,-1.05 0.6,-0.71 0.9,-1.8 0.9,-3.27 0,-1.41 -0.3,-2.46 -0.9,-3.16 -0.5,-0.7 -1.2,-1.05 -2,-1.05 -0.8,0 -1.5,0.37 -2.1,1.12 -0.7,0.74 -1,1.82 -1,3.24 z"
       id="path16136"
       style="fill:#ff0000" />
    <path
       d="m 129.4,19.29 c -0.7,0.59 -1.4,1 -2,1.25 -0.6,0.24 -1.3,0.36 -2.1,0.36 -1.2,0 -2.1,-0.3 -2.8,-0.89 -0.6,-0.59 -0.9,-1.35 -0.9,-2.27 0,-0.54 0.1,-1.03 0.3,-1.48 0.3,-0.45 0.6,-0.81 1,-1.08 0.4,-0.27 0.8,-0.47 1.3,-0.61 0.4,-0.1 1,-0.19 1.7,-0.28 1.5,-0.18 2.6,-0.39 3.3,-0.64 0.1,-0.26 0.1,-0.42 0.1,-0.49 0,-0.77 -0.2,-1.3 -0.6,-1.61 -0.5,-0.43 -1.2,-0.64 -2.1,-0.64 -0.9,0 -1.5,0.16 -2,0.46 -0.4,0.31 -0.7,0.86 -0.9,1.64 l -1.8,-0.25 c 0.2,-0.78 0.4,-1.41 0.8,-1.9 0.4,-0.48 0.9,-0.85 1.7,-1.107 0.7,-0.26 1.5,-0.39 2.5,-0.39 0.9,0 1.7,0.111 2.3,0.332 0.5,0.222 1,0.505 1.3,0.835 0.2,0.34 0.4,0.76 0.5,1.28 0.1,0.31 0.1,0.89 0.1,1.72 l 0,2.5 c 0,1.74 0.1,2.84 0.2,3.3 0,0.46 0.2,0.9 0.4,1.32 l -1.9,0 c -0.2,-0.39 -0.3,-0.84 -0.4,-1.36 z m -0.2,-4.18 c -0.6,0.28 -1.7,0.51 -3,0.71 -0.8,0.11 -1.3,0.23 -1.6,0.37 -0.4,0.14 -0.6,0.34 -0.8,0.61 -0.2,0.27 -0.2,0.56 -0.2,0.89 0,0.5 0.1,0.91 0.5,1.25 0.4,0.33 1,0.5 1.7,0.5 0.7,0 1.3,-0.16 1.9,-0.48 0.6,-0.31 1,-0.74 1.2,-1.29 0.2,-0.42 0.3,-1.05 0.3,-1.87 z"
       id="path16138"
       style="fill:#ff0000" />
    <path
       d="m 134,20.65 0,-15.237 1.9,0 0,15.237 z"
       id="path16140"
       style="fill:#ff0000" />
    <path
       d="m 142.9,18.98 0.2,1.65 c -0.5,0.11 -1,0.17 -1.4,0.17 -0.7,0 -1.2,-0.11 -1.6,-0.33 -0.3,-0.21 -0.6,-0.49 -0.7,-0.84 -0.2,-0.35 -0.3,-1.09 -0.3,-2.21 l 0,-6.35 -1.3,0 0,-1.458 1.3,0 0,-2.734 1.9,-1.122 0,3.856 1.9,0 0,1.458 -1.9,0 0,6.45 c 0,0.54 0,0.88 0.1,1.03 0.1,0.15 0.2,0.28 0.3,0.37 0.2,0.1 0.4,0.13 0.7,0.13 0.2,0 0.4,0 0.8,-0.1 z"
       id="path16142"
       style="fill:#ff0000" />
    <path
       d="m 152.2,17.1 2,0.24 c -0.3,1.13 -0.9,2 -1.7,2.63 -0.8,0.62 -1.9,0.93 -3.2,0.93 -1.6,0 -2.9,-0.5 -3.8,-1.49 -1,-0.99 -1.4,-2.39 -1.4,-4.18 0,-1.86 0.4,-3.3 1.4,-4.33 1,-1.024 2.2,-1.537 3.7,-1.537 1.5,0 2.7,0.502 3.6,1.507 1,1 1.4,2.42 1.4,4.24 0,0.11 0,0.28 0,0.5 l -8.2,0 c 0.1,1.21 0.4,2.14 1,2.79 0.6,0.64 1.4,0.96 2.3,0.96 0.7,0 1.3,-0.18 1.8,-0.54 0.5,-0.36 0.9,-0.93 1.1,-1.72 z m -6.1,-3.03 6.2,0 c -0.1,-0.93 -0.4,-1.62 -0.7,-2.09 -0.6,-0.72 -1.4,-1.08 -2.4,-1.08 -0.8,0 -1.5,0.29 -2.1,0.86 -0.6,0.58 -0.9,1.35 -1,2.31 z"
       id="path16144"
       style="fill:#ff0000" />
    <path
       d="m 156.5,20.65 0,-11.038 1.7,0 0,1.568 c 0.8,-1.211 2,-1.817 3.5,-1.817 0.7,0 1.3,0.119 1.9,0.358 0.5,0.24 0.9,0.549 1.2,0.939 0.3,0.39 0.5,0.85 0.6,1.38 0.1,0.35 0.1,0.96 0.1,1.82 l 0,6.79 -1.9,0 0,-6.71 c 0,-0.77 0,-1.34 -0.2,-1.71 -0.1,-0.38 -0.4,-0.68 -0.8,-0.91 -0.3,-0.22 -0.8,-0.34 -1.3,-0.34 -0.8,0 -1.4,0.26 -2,0.76 -0.6,0.51 -0.9,1.47 -0.9,2.88 l 0,6.03 z"
       id="path16146"
       style="fill:#ff0000" />
  </g>
  <g
     transform="matrix(1.094,0,0,1.094,329,21.5)"
     id="text15793-7"
     style="font-size:21.2887px;font-style:normal;font-variant:normal;font-weight:normal;font-stretch:normal;text-align:start;line-height:100%;letter-spacing:0px;word-spacing:0px;writing-mode:lr-tb;text-anchor:start;fill:#ff0000;fill-opacity:1;stroke:none;font-family:Arial;-inkscape-font-specification:Arial">
    <path
       d="m 171.2,61.31 0,-15.24 6.7,0 c 1.4,0 2.4,0.14 3.1,0.41 0.7,0.28 1.3,0.76 1.7,1.45 0.5,0.7 0.7,1.46 0.7,2.3 0,1.08 -0.4,1.99 -1.1,2.73 -0.7,0.74 -1.8,1.22 -3.2,1.42 0.5,0.25 0.9,0.51 1.2,0.76 0.6,0.54 1.1,1.21 1.7,2.02 l 2.6,4.15 -2.5,0 -2,-3.17 c -0.6,-0.91 -1.1,-1.61 -1.5,-2.1 -0.4,-0.48 -0.7,-0.82 -1,-1.02 -0.3,-0.19 -0.6,-0.33 -0.9,-0.4 -0.3,0 -0.6,-0.1 -1.2,-0.1 l -2.3,0 0,6.77 z m 2,-8.51 4.3,0 c 1,0 1.7,-0.1 2.2,-0.29 0.5,-0.19 0.9,-0.49 1.2,-0.91 0.3,-0.42 0.4,-0.88 0.4,-1.37 0,-0.72 -0.3,-1.31 -0.8,-1.78 -0.5,-0.46 -1.3,-0.69 -2.5,-0.69 l -4.8,0 z"
       id="path16149"
       style="fill:#ff0000" />
    <path
       d="m 193.9,57.76 1.9,0.23 c -0.3,1.13 -0.9,2.01 -1.7,2.63 -0.8,0.63 -1.9,0.94 -3.2,0.94 -1.6,0 -2.9,-0.5 -3.8,-1.49 -1,-1 -1.4,-2.39 -1.4,-4.19 0,-1.85 0.5,-3.29 1.4,-4.32 1,-1.03 2.2,-1.54 3.7,-1.54 1.5,0 2.7,0.5 3.6,1.51 1,1 1.5,2.42 1.5,4.24 0,0.11 -0.1,0.28 -0.1,0.5 l -8.2,0 c 0.1,1.21 0.4,2.14 1,2.78 0.7,0.65 1.4,0.97 2.3,0.97 0.7,0 1.3,-0.18 1.8,-0.54 0.5,-0.36 0.9,-0.93 1.2,-1.72 z m -6.2,-3.03 6.2,0 c -0.1,-0.93 -0.3,-1.62 -0.7,-2.09 -0.6,-0.72 -1.4,-1.08 -2.3,-1.08 -0.9,0 -1.6,0.29 -2.2,0.86 -0.6,0.58 -0.9,1.35 -1,2.31 z"
       id="path16151"
       style="fill:#ff0000" />
    <path
       d="m 198.1,61.31 0,-15.24 1.9,0 0,15.24 z"
       id="path16153"
       style="fill:#ff0000" />
    <path
       d="m 210.1,59.95 c -0.7,0.59 -1.4,1 -2,1.25 -0.7,0.24 -1.3,0.36 -2.1,0.36 -1.2,0 -2.1,-0.3 -2.8,-0.89 -0.6,-0.59 -0.9,-1.35 -0.9,-2.27 0,-0.54 0.1,-1.03 0.3,-1.48 0.3,-0.45 0.6,-0.81 1,-1.08 0.4,-0.27 0.8,-0.47 1.3,-0.61 0.4,-0.1 1,-0.19 1.7,-0.28 1.5,-0.18 2.6,-0.4 3.3,-0.65 0,-0.25 0,-0.42 0,-0.48 0,-0.77 -0.1,-1.3 -0.5,-1.62 -0.5,-0.42 -1.2,-0.63 -2.1,-0.63 -0.9,0 -1.5,0.15 -2,0.46 -0.4,0.31 -0.7,0.86 -0.9,1.64 l -1.8,-0.25 c 0.1,-0.78 0.4,-1.41 0.8,-1.9 0.4,-0.48 0.9,-0.85 1.7,-1.11 0.7,-0.26 1.5,-0.39 2.5,-0.39 0.9,0 1.7,0.11 2.3,0.33 0.5,0.23 1,0.5 1.3,0.84 0.2,0.34 0.4,0.76 0.5,1.27 0.1,0.32 0.1,0.9 0.1,1.73 l 0,2.49 c 0,1.74 0.1,2.84 0.1,3.3 0.1,0.47 0.3,0.91 0.5,1.33 l -1.9,0 c -0.2,-0.39 -0.4,-0.84 -0.4,-1.36 z m -0.2,-4.18 c -0.6,0.28 -1.7,0.51 -3,0.71 -0.8,0.11 -1.3,0.23 -1.7,0.37 -0.3,0.14 -0.5,0.34 -0.7,0.61 -0.2,0.27 -0.3,0.56 -0.3,0.89 0,0.5 0.2,0.91 0.6,1.25 0.4,0.33 0.9,0.49 1.7,0.49 0.7,0 1.3,-0.15 1.9,-0.47 0.6,-0.31 1,-0.75 1.2,-1.29 0.2,-0.43 0.3,-1.05 0.3,-1.87 z"
       id="path16155"
       style="fill:#ff0000" />
    <path
       d="m 218.8,59.64 0.3,1.65 c -0.5,0.11 -1,0.17 -1.4,0.17 -0.7,0 -1.2,-0.11 -1.6,-0.33 -0.4,-0.21 -0.6,-0.49 -0.8,-0.84 -0.1,-0.35 -0.2,-1.09 -0.2,-2.21 l 0,-6.35 -1.4,0 0,-1.46 1.4,0 0,-2.73 1.8,-1.13 0,3.86 1.9,0 0,1.46 -1.9,0 0,6.45 c 0,0.54 0.1,0.88 0.1,1.03 0.1,0.15 0.2,0.27 0.4,0.36 0.1,0.1 0.3,0.14 0.6,0.14 0.2,0 0.5,0 0.8,-0.1 z"
       id="path16157"
       style="fill:#ff0000" />
    <path
       d="m 220.7,48.22 0,-2.15 1.8,0 0,2.15 z m 0,13.09 0,-11.04 1.8,0 0,11.04 z"
       id="path16159"
       style="fill:#ff0000" />
    <path
       d="m 224.7,55.79 c 0,-2.04 0.6,-3.56 1.7,-4.54 0.9,-0.82 2.1,-1.23 3.5,-1.23 1.5,0 2.7,0.5 3.7,1.49 0.9,1 1.4,2.37 1.4,4.12 0,1.43 -0.2,2.54 -0.6,3.36 -0.4,0.81 -1.1,1.44 -1.9,1.89 -0.8,0.45 -1.7,0.68 -2.6,0.68 -1.6,0 -2.8,-0.5 -3.8,-1.49 -0.9,-0.99 -1.4,-2.42 -1.4,-4.28 z m 1.9,0 c 0,1.41 0.3,2.47 0.9,3.18 0.7,0.7 1.4,1.05 2.4,1.05 0.9,0 1.7,-0.35 2.3,-1.06 0.6,-0.71 0.9,-1.78 0.9,-3.23 0,-1.37 -0.3,-2.4 -0.9,-3.1 -0.6,-0.71 -1.4,-1.06 -2.3,-1.06 -1,0 -1.7,0.35 -2.4,1.05 -0.6,0.7 -0.9,1.76 -0.9,3.17 z"
       id="path16161"
       style="fill:#ff0000" />
    <path
       d="m 237.2,61.31 0,-11.04 1.7,0 0,1.57 c 0.8,-1.21 2,-1.82 3.5,-1.82 0.7,0 1.3,0.12 1.9,0.36 0.5,0.24 0.9,0.55 1.2,0.94 0.3,0.39 0.5,0.85 0.6,1.38 0.1,0.35 0.1,0.96 0.1,1.82 l 0,6.79 -1.9,0 0,-6.71 c 0,-0.77 0,-1.34 -0.2,-1.71 -0.1,-0.38 -0.4,-0.68 -0.8,-0.91 -0.3,-0.22 -0.8,-0.34 -1.3,-0.34 -0.8,0 -1.4,0.26 -2,0.76 -0.6,0.51 -0.9,1.47 -0.9,2.88 l 0,6.03 z"
       id="path16163"
       style="fill:#ff0000" />
    <path
       d="m 256.6,57.76 2,0.23 c -0.3,1.13 -0.9,2.01 -1.7,2.63 -0.8,0.63 -1.9,0.94 -3.2,0.94 -1.6,0 -2.9,-0.5 -3.8,-1.49 -1,-1 -1.4,-2.39 -1.4,-4.19 0,-1.85 0.4,-3.29 1.4,-4.32 1,-1.03 2.2,-1.54 3.7,-1.54 1.5,0 2.7,0.5 3.6,1.51 1,1 1.4,2.42 1.4,4.24 0,0.11 0,0.28 0,0.5 l -8.2,0 c 0.1,1.21 0.4,2.14 1,2.78 0.6,0.65 1.4,0.97 2.3,0.97 0.7,0 1.3,-0.18 1.8,-0.54 0.5,-0.36 0.9,-0.93 1.1,-1.72 z m -6.1,-3.03 6.2,0 c -0.1,-0.93 -0.4,-1.62 -0.7,-2.09 -0.6,-0.72 -1.4,-1.08 -2.4,-1.08 -0.8,0 -1.5,0.29 -2.1,0.86 -0.6,0.58 -0.9,1.35 -1,2.31 z"
       id="path16165"
       style="fill:#ff0000" />
    <path
       d="m 260.9,61.31 0,-11.04 1.7,0 0,1.57 c 0.8,-1.21 2,-1.82 3.5,-1.82 0.7,0 1.3,0.12 1.9,0.36 0.5,0.24 0.9,0.55 1.2,0.94 0.3,0.39 0.5,0.85 0.6,1.38 0.1,0.35 0.1,0.96 0.1,1.82 l 0,6.79 -1.9,0 0,-6.71 c 0,-0.77 0,-1.34 -0.2,-1.71 -0.1,-0.38 -0.4,-0.68 -0.8,-0.91 -0.3,-0.22 -0.8,-0.34 -1.3,-0.34 -0.8,0 -1.4,0.26 -2,0.76 -0.6,0.51 -0.9,1.47 -0.9,2.88 l 0,6.03 z"
       id="path16167"
       style="fill:#ff0000" />
    <path
       d="m 272,58.02 1.9,-0.3 c 0.1,0.75 0.4,1.31 0.9,1.71 0.4,0.39 1.1,0.59 1.9,0.59 0.9,0 1.5,-0.17 2,-0.52 0.4,-0.35 0.6,-0.76 0.6,-1.24 0,-0.42 -0.2,-0.75 -0.6,-0.99 -0.2,-0.17 -0.9,-0.38 -1.9,-0.64 -1.4,-0.34 -2.3,-0.64 -2.8,-0.9 -0.6,-0.25 -1,-0.6 -1.2,-1.05 -0.3,-0.44 -0.5,-0.94 -0.5,-1.48 0,-0.49 0.2,-0.95 0.4,-1.36 0.2,-0.42 0.5,-0.77 0.9,-1.05 0.3,-0.21 0.7,-0.4 1.2,-0.55 0.5,-0.14 1,-0.22 1.6,-0.22 0.9,0 1.6,0.13 2.3,0.38 0.6,0.25 1.1,0.58 1.4,1.01 0.4,0.43 0.6,1 0.7,1.71 l -1.8,0.25 c -0.1,-0.57 -0.4,-1.01 -0.8,-1.33 -0.4,-0.32 -0.9,-0.48 -1.7,-0.48 -0.8,0 -1.4,0.14 -1.8,0.43 -0.4,0.28 -0.5,0.61 -0.5,0.99 0,0.25 0,0.46 0.2,0.66 0.1,0.2 0.4,0.37 0.7,0.5 0.2,0.1 0.7,0.23 1.7,0.48 1.3,0.35 2.2,0.64 2.7,0.86 0.5,0.23 1,0.56 1.3,0.99 0.3,0.43 0.4,0.96 0.4,1.6 0,0.62 -0.2,1.21 -0.5,1.76 -0.4,0.55 -0.9,0.98 -1.6,1.28 -0.7,0.3 -1.5,0.45 -2.3,0.45 -1.5,0 -2.6,-0.3 -3.3,-0.89 -0.8,-0.6 -1.3,-1.48 -1.5,-2.65 z"
       id="path16169"
       style="fill:#ff0000" />
    <path
       d="m 290.6,57.27 1.9,0.24 c -0.2,1.26 -0.7,2.26 -1.6,2.97 -0.8,0.72 -1.8,1.08 -3,1.08 -1.5,0 -2.7,-0.49 -3.7,-1.48 -0.9,-0.99 -1.3,-2.4 -1.3,-4.25 0,-1.19 0.2,-2.23 0.5,-3.13 0.4,-0.89 1,-1.56 1.9,-2.01 0.8,-0.45 1.6,-0.67 2.6,-0.67 1.2,0 2.2,0.3 2.9,0.91 0.8,0.61 1.3,1.47 1.5,2.58 l -1.8,0.28 c -0.2,-0.74 -0.5,-1.29 -0.9,-1.67 -0.5,-0.37 -1,-0.56 -1.6,-0.56 -1,0 -1.7,0.34 -2.3,1.01 -0.6,0.68 -0.9,1.75 -0.9,3.21 0,1.48 0.3,2.56 0.8,3.23 0.6,0.68 1.3,1.01 2.3,1.01 0.7,0 1.3,-0.22 1.8,-0.67 0.5,-0.45 0.8,-1.15 0.9,-2.08 z"
       id="path16171"
       style="fill:#ff0000" />
    <path
       d="m 294.1,61.31 0,-15.24 1.8,0 0,5.47 c 0.9,-1.01 2,-1.52 3.3,-1.52 0.9,0 1.6,0.16 2.2,0.48 0.6,0.33 1,0.77 1.3,1.34 0.2,0.57 0.4,1.39 0.4,2.47 l 0,7 -1.9,0 0,-7 c 0,-0.93 -0.2,-1.61 -0.6,-2.04 -0.4,-0.42 -1,-0.64 -1.7,-0.64 -0.6,0 -1.1,0.15 -1.6,0.43 -0.5,0.29 -0.8,0.68 -1,1.17 -0.3,0.5 -0.4,1.17 -0.4,2.04 l 0,6.04 z"
       id="path16173"
       style="fill:#ff0000" />
    <path
       d="m 313.5,57.76 1.9,0.23 c -0.3,1.13 -0.9,2.01 -1.7,2.63 -0.8,0.63 -1.9,0.94 -3.1,0.94 -1.7,0 -2.9,-0.5 -3.9,-1.49 -0.9,-1 -1.4,-2.39 -1.4,-4.19 0,-1.85 0.5,-3.29 1.4,-4.32 1,-1.03 2.2,-1.54 3.8,-1.54 1.4,0 2.6,0.5 3.6,1.51 0.9,1 1.4,2.42 1.4,4.24 0,0.11 0,0.28 0,0.5 l -8.3,0 c 0.1,1.21 0.4,2.14 1.1,2.78 0.6,0.65 1.3,0.97 2.3,0.97 0.7,0 1.2,-0.18 1.7,-0.54 0.5,-0.36 0.9,-0.93 1.2,-1.72 z m -6.2,-3.03 6.2,0 c -0.1,-0.93 -0.3,-1.62 -0.7,-2.09 -0.6,-0.72 -1.4,-1.08 -2.3,-1.08 -0.9,0 -1.6,0.29 -2.2,0.86 -0.6,0.58 -0.9,1.35 -1,2.31 z"
       id="path16175"
       style="fill:#ff0000" />
    <path
       d="m 317.8,61.31 0,-11.04 1.6,0 0,1.55 c 0.4,-0.54 0.9,-0.98 1.4,-1.3 0.6,-0.33 1.3,-0.5 2,-0.5 0.8,0 1.5,0.17 2,0.51 0.5,0.34 0.9,0.82 1.1,1.42 0.9,-1.28 2,-1.93 3.4,-1.93 1.1,0 2,0.3 2.5,0.91 0.6,0.61 0.9,1.54 0.9,2.8 l 0,7.58 -1.8,0 0,-6.95 c 0,-0.75 -0.1,-1.29 -0.2,-1.62 -0.1,-0.33 -0.4,-0.59 -0.7,-0.8 -0.3,-0.2 -0.7,-0.3 -1.1,-0.3 -0.8,0 -1.4,0.26 -1.9,0.78 -0.5,0.51 -0.8,1.34 -0.8,2.48 l 0,6.41 -1.9,0 0,-7.17 c 0,-0.83 -0.1,-1.46 -0.4,-1.87 -0.3,-0.42 -0.8,-0.63 -1.5,-0.63 -0.5,0 -1,0.14 -1.5,0.42 -0.4,0.28 -0.8,0.68 -1,1.22 -0.2,0.53 -0.3,1.3 -0.3,2.3 l 0,5.73 z"
       id="path16177"
       style="fill:#ff0000" />
    <path
       d="m 342.7,59.95 c -0.7,0.59 -1.3,1 -2,1.25 -0.6,0.24 -1.3,0.36 -2,0.36 -1.2,0 -2.2,-0.3 -2.8,-0.89 -0.7,-0.59 -1,-1.35 -1,-2.27 0,-0.54 0.1,-1.03 0.4,-1.48 0.2,-0.45 0.5,-0.81 0.9,-1.08 0.4,-0.27 0.9,-0.47 1.4,-0.61 0.3,-0.1 0.9,-0.19 1.6,-0.28 1.5,-0.18 2.7,-0.4 3.4,-0.65 0,-0.25 0,-0.42 0,-0.48 0,-0.77 -0.2,-1.3 -0.5,-1.62 -0.5,-0.42 -1.2,-0.63 -2.2,-0.63 -0.9,0 -1.5,0.15 -1.9,0.46 -0.4,0.31 -0.8,0.86 -1,1.64 l -1.8,-0.25 c 0.2,-0.78 0.5,-1.41 0.8,-1.9 0.4,-0.48 1,-0.85 1.7,-1.11 0.7,-0.26 1.5,-0.39 2.5,-0.39 0.9,0 1.7,0.11 2.3,0.33 0.6,0.23 1,0.5 1.3,0.84 0.3,0.34 0.5,0.76 0.6,1.27 0,0.32 0.1,0.9 0.1,1.73 l 0,2.49 c 0,1.74 0,2.84 0.1,3.3 0.1,0.47 0.2,0.91 0.5,1.33 l -2,0 c -0.2,-0.39 -0.3,-0.84 -0.4,-1.36 z m -0.1,-4.18 c -0.7,0.28 -1.7,0.51 -3.1,0.71 -0.8,0.11 -1.3,0.23 -1.6,0.37 -0.3,0.14 -0.6,0.34 -0.8,0.61 -0.1,0.27 -0.2,0.56 -0.2,0.89 0,0.5 0.2,0.91 0.6,1.25 0.3,0.33 0.9,0.49 1.6,0.49 0.7,0 1.4,-0.15 1.9,-0.47 0.6,-0.31 1,-0.75 1.3,-1.29 0.2,-0.43 0.3,-1.05 0.3,-1.87 z"
       id="path16179"
       style="fill:#ff0000" />
  </g>
  <g
     transform="matrix(1.094,0,0,1.094,329,21.5)"
     id="text15793-5"
     style="font-size:21.2887px;font-style:normal;font-variant:normal;font-weight:normal;font-stretch:normal;text-align:start;line-height:100%;letter-spacing:0px;word-spacing:0px;writing-mode:lr-tb;text-anchor:start;fill:#ff0000;fill-opacity:1;stroke:none;font-family:Arial;-inkscape-font-specification:Arial">
    <path
       d="m 253.2,218.6 0,-15.2 6.8,0 c 1.3,0 2.4,0.1 3.1,0.4 0.7,0.3 1.2,0.8 1.7,1.5 0.4,0.7 0.6,1.4 0.6,2.3 0,1 -0.4,2 -1.1,2.7 -0.7,0.7 -1.7,1.2 -3.2,1.4 0.5,0.3 0.9,0.5 1.2,0.8 0.6,0.5 1.2,1.2 1.7,2 l 2.6,4.1 -2.5,0 -2,-3.1 c -0.6,-0.9 -1.1,-1.6 -1.5,-2.1 -0.4,-0.5 -0.7,-0.9 -1,-1 -0.3,-0.2 -0.6,-0.4 -0.9,-0.5 -0.2,0 -0.6,0 -1.1,0 l -2.4,0 0,6.7 z m 2,-8.5 4.4,0 c 0.9,0 1.6,-0.1 2.1,-0.3 0.5,-0.1 0.9,-0.5 1.2,-0.9 0.3,-0.4 0.4,-0.8 0.4,-1.3 0,-0.8 -0.2,-1.4 -0.8,-1.8 -0.5,-0.5 -1.3,-0.7 -2.5,-0.7 l -4.8,0 z"
       id="path16182"
       style="fill:#ff0000" />
    <path
       d="m 275.9,215.1 1.9,0.2 c -0.3,1.2 -0.9,2 -1.7,2.7 -0.8,0.6 -1.9,0.9 -3.1,0.9 -1.7,0 -2.9,-0.5 -3.9,-1.5 -0.9,-1 -1.4,-2.4 -1.4,-4.2 0,-1.8 0.5,-3.3 1.4,-4.3 1,-1 2.2,-1.5 3.8,-1.5 1.4,0 2.6,0.5 3.6,1.5 0.9,1 1.4,2.4 1.4,4.2 0,0.1 0,0.3 0,0.5 l -8.3,0 c 0.1,1.2 0.4,2.1 1.1,2.8 0.6,0.6 1.3,1 2.3,1 0.7,0 1.2,-0.2 1.7,-0.6 0.5,-0.3 0.9,-0.9 1.2,-1.7 z m -6.2,-3 6.2,0 c -0.1,-1 -0.3,-1.7 -0.7,-2.1 -0.6,-0.7 -1.4,-1.1 -2.3,-1.1 -0.9,0 -1.6,0.3 -2.2,0.9 -0.6,0.5 -0.9,1.3 -1,2.3 z"
       id="path16184"
       style="fill:#ff0000" />
    <path
       d="m 280.1,218.6 0,-15.2 1.9,0 0,15.2 z"
       id="path16186"
       style="fill:#ff0000" />
    <path
       d="m 292.1,217.3 c -0.7,0.6 -1.3,1 -2,1.2 -0.6,0.3 -1.3,0.4 -2,0.4 -1.3,0 -2.2,-0.3 -2.8,-0.9 -0.7,-0.6 -1,-1.3 -1,-2.3 0,-0.5 0.1,-1 0.3,-1.5 0.3,-0.4 0.6,-0.8 1,-1 0.4,-0.3 0.9,-0.5 1.4,-0.6 0.3,-0.1 0.9,-0.2 1.6,-0.3 1.5,-0.2 2.6,-0.4 3.4,-0.7 0,-0.2 0,-0.4 0,-0.5 0,-0.7 -0.2,-1.3 -0.6,-1.6 -0.4,-0.4 -1.1,-0.6 -2.1,-0.6 -0.9,0 -1.5,0.2 -1.9,0.5 -0.5,0.3 -0.8,0.8 -1,1.6 l -1.8,-0.2 c 0.2,-0.8 0.4,-1.5 0.8,-1.9 0.4,-0.5 1,-0.9 1.7,-1.2 0.7,-0.2 1.5,-0.3 2.5,-0.3 0.9,0 1.7,0.1 2.3,0.3 0.6,0.2 1,0.5 1.3,0.8 0.3,0.4 0.4,0.8 0.6,1.3 0,0.3 0.1,0.9 0.1,1.7 l 0,2.5 c 0,1.8 0,2.9 0.1,3.3 0.1,0.5 0.2,0.9 0.4,1.3 l -1.9,0 c -0.2,-0.3 -0.3,-0.8 -0.4,-1.3 z m -0.1,-4.2 c -0.7,0.3 -1.7,0.5 -3.1,0.7 -0.8,0.1 -1.3,0.2 -1.6,0.4 -0.3,0.1 -0.6,0.3 -0.8,0.6 -0.1,0.3 -0.2,0.6 -0.2,0.9 0,0.5 0.2,0.9 0.5,1.2 0.4,0.4 1,0.5 1.7,0.5 0.7,0 1.4,-0.1 1.9,-0.4 0.6,-0.4 1,-0.8 1.3,-1.3 0.2,-0.5 0.3,-1.1 0.3,-1.9 z"
       id="path16188"
       style="fill:#ff0000" />
    <path
       d="m 300.8,217 0.3,1.6 c -0.5,0.1 -1,0.2 -1.4,0.2 -0.7,0 -1.2,-0.1 -1.6,-0.3 -0.3,-0.2 -0.6,-0.5 -0.8,-0.9 -0.1,-0.3 -0.2,-1.1 -0.2,-2.2 l 0,-6.3 -1.4,0 0,-1.5 1.4,0 0,-2.7 1.9,-1.2 0,3.9 1.8,0 0,1.5 -1.8,0 0,6.4 c 0,0.5 0,0.9 0.1,1 0,0.2 0.1,0.3 0.3,0.4 0.1,0.1 0.3,0.1 0.6,0.1 0.2,0 0.5,0 0.8,0 z"
       id="path16190"
       style="fill:#ff0000" />
    <path
       d="m 302.7,205.6 0,-2.2 1.8,0 0,2.2 z m 0,13 0,-11 1.8,0 0,11 z"
       id="path16192"
       style="fill:#ff0000" />
    <path
       d="m 306.7,213.1 c 0,-2 0.6,-3.5 1.7,-4.5 1,-0.8 2.1,-1.2 3.5,-1.2 1.5,0 2.7,0.4 3.7,1.4 1,1 1.5,2.4 1.5,4.2 0,1.4 -0.3,2.5 -0.7,3.3 -0.4,0.8 -1,1.5 -1.8,1.9 -0.9,0.5 -1.7,0.7 -2.7,0.7 -1.6,0 -2.8,-0.5 -3.8,-1.5 -0.9,-1 -1.4,-2.4 -1.4,-4.3 z m 1.9,0 c 0,1.4 0.3,2.5 1,3.2 0.6,0.7 1.4,1.1 2.3,1.1 0.9,0 1.7,-0.4 2.3,-1.1 0.6,-0.7 0.9,-1.8 0.9,-3.2 0,-1.4 -0.3,-2.4 -0.9,-3.1 -0.6,-0.7 -1.4,-1.1 -2.3,-1.1 -0.9,0 -1.7,0.4 -2.3,1.1 -0.7,0.7 -1,1.7 -1,3.1 z"
       id="path16194"
       style="fill:#ff0000" />
    <path
       d="m 319.3,218.6 0,-11 1.6,0 0,1.6 c 0.9,-1.2 2,-1.8 3.6,-1.8 0.6,0 1.2,0.1 1.8,0.3 0.5,0.3 1,0.6 1.2,1 0.3,0.3 0.5,0.8 0.6,1.3 0.1,0.4 0.1,1 0.1,1.9 l 0,6.7 -1.8,0 0,-6.7 c 0,-0.7 -0.1,-1.3 -0.3,-1.7 -0.1,-0.4 -0.4,-0.7 -0.7,-0.9 -0.4,-0.2 -0.8,-0.3 -1.3,-0.3 -0.8,0 -1.5,0.2 -2.1,0.7 -0.6,0.5 -0.9,1.5 -0.9,2.9 l 0,6 z"
       id="path16196"
       style="fill:#ff0000" />
    <path
       d="m 335.6,218.9 4.4,-15.8 1.5,0 -4.4,15.8 z"
       id="path16198"
       style="fill:#ff0000" />
    <path
       d="m 352.9,218.6 0,-13.4 -5,0 0,-1.8 12.1,0 0,1.8 -5,0 0,13.4 z"
       id="path16200"
       style="fill:#ff0000" />
    <path
       d="m 369,217.3 c -0.7,0.6 -1.3,1 -2,1.2 -0.6,0.3 -1.3,0.4 -2,0.4 -1.2,0 -2.2,-0.3 -2.8,-0.9 -0.7,-0.6 -1,-1.3 -1,-2.3 0,-0.5 0.1,-1 0.4,-1.5 0.2,-0.4 0.5,-0.8 0.9,-1 0.4,-0.3 0.9,-0.5 1.4,-0.6 0.3,-0.1 0.9,-0.2 1.6,-0.3 1.6,-0.2 2.7,-0.4 3.4,-0.7 0,-0.2 0,-0.4 0,-0.5 0,-0.7 -0.2,-1.3 -0.5,-1.6 -0.5,-0.4 -1.2,-0.6 -2.2,-0.6 -0.8,0 -1.5,0.2 -1.9,0.5 -0.4,0.3 -0.7,0.8 -0.9,1.6 l -1.9,-0.2 c 0.2,-0.8 0.5,-1.5 0.8,-1.9 0.4,-0.5 1,-0.9 1.7,-1.2 0.7,-0.2 1.6,-0.3 2.5,-0.3 0.9,0 1.7,0.1 2.3,0.3 0.6,0.2 1,0.5 1.3,0.8 0.3,0.4 0.5,0.8 0.6,1.3 0,0.3 0.1,0.9 0.1,1.7 l 0,2.5 c 0,1.8 0,2.9 0.1,3.3 0.1,0.5 0.2,0.9 0.5,1.3 l -2,0 c -0.2,-0.3 -0.3,-0.8 -0.4,-1.3 z m -0.1,-4.2 c -0.7,0.3 -1.7,0.5 -3.1,0.7 -0.7,0.1 -1.3,0.2 -1.6,0.4 -0.3,0.1 -0.6,0.3 -0.7,0.6 -0.2,0.3 -0.3,0.6 -0.3,0.9 0,0.5 0.2,0.9 0.6,1.2 0.3,0.4 0.9,0.5 1.6,0.5 0.7,0 1.4,-0.1 1.9,-0.4 0.6,-0.4 1,-0.8 1.3,-1.3 0.2,-0.5 0.3,-1.1 0.3,-1.9 z"
       id="path16202"
       style="fill:#ff0000" />
    <path
       d="m 375.4,218.6 -1.7,0 0,-15.2 1.8,0 0,5.4 c 0.8,-1 1.8,-1.4 3.1,-1.4 0.6,0 1.3,0.1 1.9,0.4 0.6,0.2 1.1,0.6 1.5,1.1 0.4,0.5 0.7,1.1 0.9,1.8 0.2,0.7 0.3,1.5 0.3,2.3 0,1.8 -0.4,3.3 -1.4,4.3 -0.9,1.1 -2,1.6 -3.3,1.6 -1.3,0 -2.3,-0.6 -3.1,-1.6 z m 0,-5.6 c 0,1.4 0.2,2.3 0.5,2.9 0.6,1 1.4,1.5 2.4,1.5 0.8,0 1.5,-0.4 2.1,-1.1 0.6,-0.7 0.9,-1.8 0.9,-3.2 0,-1.4 -0.3,-2.5 -0.8,-3.2 -0.6,-0.7 -1.3,-1 -2.1,-1 -0.8,0 -1.5,0.3 -2.1,1.1 -0.6,0.7 -0.9,1.7 -0.9,3 z"
       id="path16204"
       style="fill:#ff0000" />
    <path
       d="m 393.1,215.1 1.9,0.2 c -0.3,1.2 -0.8,2 -1.7,2.7 -0.8,0.6 -1.8,0.9 -3.1,0.9 -1.6,0 -2.9,-0.5 -3.9,-1.5 -0.9,-1 -1.4,-2.4 -1.4,-4.2 0,-1.8 0.5,-3.3 1.4,-4.3 1,-1 2.2,-1.5 3.8,-1.5 1.4,0 2.6,0.5 3.6,1.5 0.9,1 1.4,2.4 1.4,4.2 0,0.1 0,0.3 0,0.5 l -8.3,0 c 0.1,1.2 0.5,2.1 1.1,2.8 0.6,0.6 1.4,1 2.3,1 0.7,0 1.3,-0.2 1.7,-0.6 0.5,-0.3 0.9,-0.9 1.2,-1.7 z m -6.2,-3 6.2,0 c -0.1,-1 -0.3,-1.7 -0.7,-2.1 -0.6,-0.7 -1.4,-1.1 -2.3,-1.1 -0.9,0 -1.6,0.3 -2.2,0.9 -0.6,0.5 -0.9,1.3 -1,2.3 z"
       id="path16206"
       style="fill:#ff0000" />
    <path
       d="m 397.3,218.6 0,-15.2 1.9,0 0,15.2 z"
       id="path16208"
       style="fill:#ff0000" />
    <path
       d="m 402.1,218.6 0,-15.2 1.9,0 0,15.2 z"
       id="path16210"
       style="fill:#ff0000" />
    <path
       d="m 414.4,215.1 2,0.2 c -0.3,1.2 -0.9,2 -1.7,2.7 -0.9,0.6 -1.9,0.9 -3.2,0.9 -1.6,0 -2.9,-0.5 -3.8,-1.5 -1,-1 -1.5,-2.4 -1.5,-4.2 0,-1.8 0.5,-3.3 1.5,-4.3 0.9,-1 2.2,-1.5 3.7,-1.5 1.5,0 2.7,0.5 3.6,1.5 1,1 1.4,2.4 1.4,4.2 0,0.1 0,0.3 0,0.5 l -8.2,0 c 0,1.2 0.4,2.1 1,2.8 0.6,0.6 1.4,1 2.3,1 0.7,0 1.3,-0.2 1.8,-0.6 0.5,-0.3 0.8,-0.9 1.1,-1.7 z m -6.1,-3 6.1,0 c 0,-1 -0.3,-1.7 -0.7,-2.1 -0.6,-0.7 -1.3,-1.1 -2.3,-1.1 -0.8,0 -1.6,0.3 -2.1,0.9 -0.6,0.5 -1,1.3 -1,2.3 z"
       id="path16212"
       style="fill:#ff0000" />
  </g>
  <g
     transform="matrix(1.094,0,0,1.094,329,21.5)"
     id="text15793-1"
     style="font-size:21.2887px;font-style:normal;font-variant:normal;font-weight:normal;font-stretch:normal;text-align:start;line-height:100%;letter-spacing:0px;word-spacing:0px;writing-mode:lr-tb;text-anchor:start;fill:#ff0000;fill-opacity:1;stroke:none;font-family:Arial;-inkscape-font-specification:Arial">
    <path
       d="m 183.2,327.9 0,-13.5 -5.1,0 0,-1.7 12.1,0 0,1.7 -5,0 0,13.5 z"
       id="path16215"
       style="fill:#ff0000" />
    <path
       d="m 199.3,327.9 0,-1.6 c -0.9,1.2 -2,1.8 -3.5,1.8 -0.7,0 -1.3,-0.1 -1.8,-0.3 -0.6,-0.3 -1,-0.6 -1.3,-1 -0.3,-0.4 -0.5,-0.8 -0.6,-1.4 0,-0.3 -0.1,-0.9 -0.1,-1.7 l 0,-6.8 1.9,0 0,6.1 c 0,0.9 0,1.6 0.1,1.9 0.1,0.5 0.4,0.9 0.8,1.2 0.3,0.3 0.8,0.4 1.4,0.4 0.5,0 1.1,-0.1 1.5,-0.4 0.5,-0.3 0.9,-0.7 1.1,-1.2 0.2,-0.5 0.3,-1.2 0.3,-2.1 l 0,-5.9 1.9,0 0,11 z"
       id="path16217"
       style="fill:#ff0000" />
    <path
       d="m 203.9,332.1 0,-15.2 1.7,0 0,1.4 c 0.4,-0.6 0.9,-1 1.4,-1.3 0.5,-0.3 1.1,-0.4 1.8,-0.4 1,0 1.8,0.2 2.5,0.7 0.7,0.5 1.3,1.2 1.6,2.1 0.4,0.9 0.6,1.8 0.6,2.9 0,1.1 -0.2,2.1 -0.6,3 -0.4,0.9 -1,1.6 -1.8,2.1 -0.8,0.5 -1.6,0.7 -2.4,0.7 -0.6,0 -1.2,-0.1 -1.7,-0.4 -0.5,-0.2 -0.9,-0.6 -1.2,-1 l 0,5.4 z m 1.7,-9.7 c 0,1.5 0.3,2.5 0.9,3.2 0.5,0.7 1.2,1 2.1,1 0.8,0 1.5,-0.4 2.1,-1.1 0.6,-0.7 0.9,-1.7 0.9,-3.2 0,-1.4 -0.3,-2.5 -0.9,-3.2 -0.6,-0.7 -1.3,-1 -2.1,-1 -0.8,0 -1.5,0.3 -2.1,1.1 -0.6,0.7 -0.9,1.8 -0.9,3.2 z"
       id="path16219"
       style="fill:#ff0000" />
    <path
       d="m 223.3,324.3 2,0.3 c -0.4,1.1 -0.9,2 -1.7,2.6 -0.9,0.6 -1.9,0.9 -3.2,0.9 -1.6,0 -2.9,-0.5 -3.8,-1.5 -1,-0.9 -1.5,-2.3 -1.5,-4.1 0,-1.9 0.5,-3.3 1.5,-4.4 0.9,-1 2.2,-1.5 3.7,-1.5 1.5,0 2.7,0.5 3.6,1.5 0.9,1 1.4,2.4 1.4,4.2 0,0.2 0,0.3 0,0.5 l -8.2,0 c 0,1.3 0.4,2.2 1,2.8 0.6,0.7 1.4,1 2.3,1 0.7,0 1.3,-0.2 1.8,-0.5 0.4,-0.4 0.8,-1 1.1,-1.8 z m -6.1,-3 6.1,0 c 0,-0.9 -0.3,-1.6 -0.7,-2.1 -0.6,-0.7 -1.3,-1.1 -2.3,-1.1 -0.8,0 -1.6,0.3 -2.2,0.9 -0.5,0.6 -0.9,1.3 -0.9,2.3 z"
       id="path16221"
       style="fill:#ff0000" />
    <path
       d="m 227.6,327.9 0,-15.2 1.8,0 0,15.2 z"
       id="path16223"
       style="fill:#ff0000" />
    <path
       d="m 236.9,328.1 4.4,-15.7 1.5,0 -4.4,15.7 z"
       id="path16225"
       style="fill:#ff0000" />
    <path
       d="m 249.1,327.9 0,-1.9 7.8,-9.7 c 0.5,-0.7 1.1,-1.3 1.6,-1.9 l -8.5,0 0,-1.7 10.9,0 0,1.7 -8.6,10.6 -0.9,1.1 9.7,0 0,1.8 z"
       id="path16227"
       style="fill:#ff0000" />
    <path
       d="m 270.6,324.3 2,0.3 c -0.3,1.1 -0.9,2 -1.7,2.6 -0.9,0.6 -1.9,0.9 -3.2,0.9 -1.6,0 -2.9,-0.5 -3.8,-1.5 -1,-0.9 -1.4,-2.3 -1.4,-4.1 0,-1.9 0.4,-3.3 1.4,-4.4 0.9,-1 2.2,-1.5 3.7,-1.5 1.5,0 2.7,0.5 3.6,1.5 1,1 1.4,2.4 1.4,4.2 0,0.2 0,0.3 0,0.5 l -8.2,0 c 0.1,1.3 0.4,2.2 1,2.8 0.6,0.7 1.4,1 2.3,1 0.7,0 1.3,-0.2 1.8,-0.5 0.5,-0.4 0.9,-1 1.1,-1.8 z m -6.1,-3 6.2,0 c -0.1,-0.9 -0.4,-1.6 -0.8,-2.1 -0.5,-0.7 -1.3,-1.1 -2.3,-1.1 -0.8,0 -1.6,0.3 -2.1,0.9 -0.6,0.6 -0.9,1.3 -1,2.3 z"
       id="path16229"
       style="fill:#ff0000" />
    <path
       d="m 274.9,314.8 0,-2.1 1.9,0 0,2.1 z m 0,13.1 0,-11 1.9,0 0,11 z"
       id="path16231"
       style="fill:#ff0000" />
    <path
       d="m 279.6,327.9 0,-15.2 1.9,0 0,15.2 z"
       id="path16233"
       style="fill:#ff0000" />
    <path
       d="m 292,324.3 1.9,0.3 c -0.3,1.1 -0.9,2 -1.7,2.6 -0.8,0.6 -1.9,0.9 -3.2,0.9 -1.6,0 -2.9,-0.5 -3.8,-1.5 -0.9,-0.9 -1.4,-2.3 -1.4,-4.1 0,-1.9 0.5,-3.3 1.4,-4.4 1,-1 2.2,-1.5 3.7,-1.5 1.5,0 2.7,0.5 3.7,1.5 0.9,1 1.4,2.4 1.4,4.2 0,0.2 0,0.3 0,0.5 l -8.3,0 c 0.1,1.3 0.4,2.2 1,2.8 0.7,0.7 1.4,1 2.4,1 0.6,0 1.2,-0.2 1.7,-0.5 0.5,-0.4 0.9,-1 1.2,-1.8 z m -6.2,-3 6.2,0 c -0.1,-0.9 -0.3,-1.6 -0.7,-2.1 -0.6,-0.7 -1.4,-1.1 -2.3,-1.1 -0.9,0 -1.6,0.3 -2.2,0.9 -0.6,0.6 -0.9,1.3 -1,2.3 z"
       id="path16235"
       style="fill:#ff0000" />
    <path
       d="m 296.3,327.9 0,-11 1.6,0 0,1.5 c 0.9,-1.2 2,-1.8 3.6,-1.8 0.6,0 1.2,0.1 1.8,0.4 0.5,0.2 1,0.5 1.2,0.9 0.3,0.4 0.5,0.8 0.6,1.4 0.1,0.3 0.1,0.9 0.1,1.8 l 0,6.8 -1.8,0 0,-6.7 c 0,-0.8 -0.1,-1.4 -0.3,-1.7 -0.1,-0.4 -0.4,-0.7 -0.7,-0.9 -0.4,-0.3 -0.8,-0.4 -1.3,-0.4 -0.8,0 -1.5,0.3 -2.1,0.8 -0.6,0.5 -0.9,1.4 -0.9,2.9 l 0,6 z"
       id="path16237"
       style="fill:#ff0000" />
  </g>
  <path
     d="m 573.3,170.8 c 47,38.4 -22.5,51.6 20.1,82.8 -42.6,31.2 26.9,44.4 -20.1,82.8"
     id="path15849"
     style="fill:none;stroke:#ff0000;stroke-width:2.1875;stroke-linecap:butt;stroke-linejoin:miter;stroke-miterlimit:4;stroke-opacity:1;stroke-dasharray:none" />
  <g
     transform="matrix(1.094,0,0,1.094,329,21.5)"
     id="text15793-56"
     style="font-size:21.2887px;font-style:normal;font-variant:normal;font-weight:normal;font-stretch:normal;text-align:start;line-height:100%;letter-spacing:0px;word-spacing:0px;writing-mode:lr-tb;text-anchor:start;fill:#ff0000;fill-opacity:1;stroke:none;font-family:Arial;-inkscape-font-specification:Arial">
    <path
       d="m -175.5,163.8 -4,-15.2 2,0 2.3,10 c 0.3,1 0.5,2.1 0.7,3.1 0.4,-1.6 0.6,-2.6 0.7,-2.8 l 2.9,-10.3 2.4,0 2.2,7.7 c 0.5,1.9 0.9,3.7 1.2,5.4 0.2,-1 0.4,-2.1 0.7,-3.3 l 2.4,-9.8 2.1,0 -4.2,15.2 -2,0 -3.2,-11.6 c -0.3,-0.9 -0.4,-1.5 -0.5,-1.8 -0.1,0.7 -0.3,1.3 -0.4,1.8 l -3.2,11.6 z"
       id="path16062"
       style="fill:#ff0000" />
    <path
       d="m -150.8,160.3 2,0.2 c -0.3,1.2 -0.9,2 -1.7,2.7 -0.8,0.6 -1.9,0.9 -3.2,0.9 -1.6,0 -2.9,-0.5 -3.8,-1.5 -1,-1 -1.4,-2.4 -1.4,-4.2 0,-1.8 0.4,-3.3 1.4,-4.3 1,-1 2.2,-1.5 3.7,-1.5 1.5,0 2.7,0.5 3.6,1.5 1,1 1.4,2.4 1.4,4.2 0,0.1 0,0.3 0,0.5 l -8.2,0 c 0.1,1.2 0.4,2.1 1,2.8 0.6,0.6 1.4,1 2.3,1 0.7,0 1.3,-0.2 1.8,-0.6 0.5,-0.3 0.9,-0.9 1.1,-1.7 z m -6.1,-3 6.2,0 c -0.1,-1 -0.4,-1.7 -0.7,-2.1 -0.6,-0.7 -1.4,-1.1 -2.4,-1.1 -0.8,0 -1.5,0.3 -2.1,0.9 -0.6,0.5 -0.9,1.3 -1,2.3 z"
       id="path16064"
       style="fill:#ff0000" />
    <path
       d="m -146.5,163.8 0,-11 1.7,0 0,1.7 c 0.4,-0.8 0.8,-1.3 1.2,-1.6 0.4,-0.2 0.8,-0.3 1.2,-0.3 0.6,0 1.3,0.2 1.9,0.6 l -0.6,1.7 c -0.5,-0.3 -0.9,-0.4 -1.4,-0.4 -0.4,0 -0.8,0.1 -1.1,0.4 -0.3,0.2 -0.6,0.5 -0.7,1 -0.2,0.6 -0.3,1.4 -0.3,2.2 l 0,5.7 z"
       id="path16066"
       style="fill:#ff0000" />
    <path
       d="m -135.3,162.2 0.3,1.6 c -0.5,0.1 -1,0.2 -1.4,0.2 -0.7,0 -1.2,-0.1 -1.6,-0.3 -0.4,-0.3 -0.6,-0.5 -0.8,-0.9 -0.1,-0.3 -0.2,-1.1 -0.2,-2.2 l 0,-6.3 -1.4,0 0,-1.5 1.4,0 0,-2.7 1.8,-1.2 0,3.9 1.9,0 0,1.5 -1.9,0 0,6.4 c 0,0.5 0.1,0.9 0.1,1 0.1,0.2 0.2,0.3 0.4,0.4 0.1,0.1 0.3,0.1 0.6,0.1 0.2,0 0.5,0 0.8,0 z"
       id="path16068"
       style="fill:#ff0000" />
  </g>
  <g
     transform="matrix(1.094,0,0,1.094,329,21.5)"
     id="text15891"
     style="font-size:31.861px;font-style:normal;font-variant:normal;font-weight:normal;font-stretch:normal;text-align:start;line-height:100%;letter-spacing:0px;word-spacing:0px;writing-mode:lr-tb;text-anchor:start;fill:#000000;fill-opacity:1;stroke:none;font-family:Times New Roman;-inkscape-font-specification:'Times New Roman,'">
    <path
       d="m -266.5,126.2 -5.7,0 -7.1,-9.8 c -0.6,0 -1,0 -1.3,0 -0.1,0 -0.3,0 -0.4,0 -0.2,0 -0.4,0 -0.5,0 l 0,6.1 c 0,1.3 0.1,2.2 0.4,2.5 0.4,0.4 1,0.7 1.8,0.7 l 0.8,0 0,0.5 -9,0 0,-0.5 0.8,0 c 0.8,0 1.5,-0.3 1.9,-0.9 0.2,-0.3 0.3,-1.1 0.3,-2.3 l 0,-13.6 c 0,-1.3 -0.1,-2.2 -0.4,-2.5 -0.4,-0.4 -1,-0.7 -1.8,-0.7 l -0.8,0 0,-0.5 7.6,0 c 2.3,0 3.9,0.1 5,0.4 1.1,0.4 2,1 2.7,1.8 0.8,0.9 1.1,2 1.1,3.2 0,1.3 -0.4,2.4 -1.2,3.4 -0.9,0.9 -2.2,1.6 -4,2 l 4.4,6 c 1,1.4 1.8,2.3 2.6,2.8 0.7,0.5 1.6,0.7 2.8,0.9 z m -15,-10.8 c 0.2,0 0.3,0 0.5,0 0.1,0 0.2,0 0.3,0 2.1,0 3.6,-0.4 4.6,-1.3 1,-0.9 1.5,-2 1.5,-3.3 0,-1.3 -0.4,-2.4 -1.2,-3.2 -0.8,-0.9 -1.9,-1.3 -3.3,-1.3 -0.6,0 -1.4,0.1 -2.4,0.3 z"
       id="path16040"
       style="fill:#000000" />
  </g>
  <g
     transform="matrix(1.094,0,0,1.094,329,21.5)"
     id="text15891-5"
     style="font-size:31.861px;font-style:normal;font-variant:normal;font-weight:normal;font-stretch:normal;text-align:start;line-height:100%;letter-spacing:0px;word-spacing:0px;writing-mode:lr-tb;text-anchor:start;fill:#000000;fill-opacity:1;stroke:none;font-family:Times New Roman;-inkscape-font-specification:'Times New Roman,'">
    <path
       d="m -159.7,119 -8.2,0 -1.4,3.3 c -0.4,0.8 -0.5,1.4 -0.5,1.8 0,0.4 0.1,0.7 0.4,0.9 0.3,0.2 1,0.4 2,0.5 l 0,0.5 -6.6,0 0,-0.5 c 0.8,-0.2 1.4,-0.4 1.7,-0.6 0.5,-0.5 1.1,-1.5 1.7,-3.1 l 7.5,-17.3 0.5,0 7.3,17.5 c 0.6,1.4 1.2,2.3 1.6,2.8 0.5,0.4 1.2,0.6 2.1,0.7 l 0,0.5 -8.4,0 0,-0.5 c 0.9,-0.1 1.4,-0.2 1.7,-0.4 0.3,-0.3 0.5,-0.6 0.5,-0.9 0,-0.5 -0.2,-1.2 -0.6,-2.2 z m -0.4,-1.2 -3.6,-8.5 -3.7,8.5 z"
       id="path16043"
       style="fill:#000000" />
  </g>
  <g
     transform="matrix(1.094,0,0,1.094,329,21.5)"
     id="text15891-5-5"
     style="font-size:31.861px;font-style:normal;font-variant:normal;font-weight:normal;font-stretch:normal;text-align:start;line-height:100%;letter-spacing:0px;word-spacing:0px;writing-mode:lr-tb;text-anchor:start;fill:#000000;fill-opacity:1;stroke:none;font-family:Times New Roman;-inkscape-font-specification:'Times New Roman,'">
    <path
       d="m 67.63,119 -8.17,0 -1.43,3.3 c -0.35,0.8 -0.53,1.4 -0.53,1.8 0,0.4 0.15,0.7 0.46,0.9 0.3,0.2 0.97,0.4 1.98,0.5 l 0,0.5 -6.64,0 0,-0.5 c 0.88,-0.2 1.45,-0.4 1.71,-0.6 0.53,-0.5 1.12,-1.5 1.76,-3.1 l 7.42,-17.3 0.54,0 7.35,17.5 c 0.59,1.4 1.12,2.3 1.61,2.8 0.48,0.4 1.15,0.6 2.01,0.7 l 0,0.5 -8.32,0 0,-0.5 c 0.84,-0.1 1.41,-0.2 1.7,-0.4 0.3,-0.3 0.44,-0.6 0.44,-0.9 0,-0.5 -0.2,-1.2 -0.62,-2.2 z m -0.44,-1.2 -3.58,-8.5 -3.67,8.5 z"
       id="path16056"
       style="fill:#000000" />
  </g>
  <g
     transform="matrix(1.094,0,0,1.094,329,21.5)"
     id="text15891-5-5-6"
     style="font-size:31.861px;font-style:normal;font-variant:normal;font-weight:normal;font-stretch:normal;text-align:start;line-height:100%;letter-spacing:0px;word-spacing:0px;writing-mode:lr-tb;text-anchor:start;fill:#000000;fill-opacity:1;stroke:none;font-family:Times New Roman;-inkscape-font-specification:'Times New Roman,'">
    <path
       d="m -56.97,124.3 c 0.49,0 0.9,0.1 1.23,0.5 0.33,0.3 0.5,0.7 0.5,1.2 0,0.5 -0.17,0.9 -0.51,1.2 -0.33,0.4 -0.74,0.5 -1.22,0.5 -0.47,0 -0.88,-0.1 -1.22,-0.5 -0.34,-0.3 -0.5,-0.7 -0.5,-1.2 0,-0.5 0.16,-0.9 0.5,-1.2 0.34,-0.4 0.75,-0.5 1.22,-0.5 z"
       id="path16049"
       style="fill:#000000" />
    <path
       d="m -49,124.3 c 0.49,0 0.89,0.1 1.23,0.5 0.33,0.3 0.49,0.7 0.49,1.2 0,0.5 -0.16,0.9 -0.5,1.2 -0.34,0.4 -0.75,0.5 -1.22,0.5 -0.48,0 -0.89,-0.1 -1.22,-0.5 -0.34,-0.3 -0.51,-0.7 -0.51,-1.2 0,-0.5 0.17,-0.9 0.51,-1.2 0.33,-0.4 0.74,-0.5 1.22,-0.5 z"
       id="path16051"
       style="fill:#000000" />
    <path
       d="m -41.04,124.3 c 0.49,0 0.9,0.1 1.23,0.5 0.33,0.3 0.5,0.7 0.5,1.2 0,0.5 -0.17,0.9 -0.51,1.2 -0.33,0.4 -0.74,0.5 -1.22,0.5 -0.47,0 -0.88,-0.1 -1.22,-0.5 -0.34,-0.3 -0.5,-0.7 -0.5,-1.2 0,-0.5 0.16,-0.9 0.5,-1.2 0.34,-0.4 0.75,-0.5 1.22,-0.5 z"
       id="path16053"
       style="fill:#000000" />
  </g>
  <g
     transform="matrix(1.094,0,0,1.094,329,21.5)"
     id="text15891-5-3"
     style="font-size:16.5202px;font-style:normal;font-variant:normal;font-weight:normal;font-stretch:normal;text-align:start;line-height:100%;letter-spacing:0px;word-spacing:0px;writing-mode:lr-tb;text-anchor:start;fill:#000000;fill-opacity:1;stroke:none;font-family:Times New Roman;-inkscape-font-specification:'Times New Roman,'">
    <path
       d="m -149.2,121.9 2.6,-1.3 0.3,0 0,9.3 c 0,0.6 0,1 0.1,1.1 0,0.2 0.1,0.3 0.3,0.4 0.1,0 0.5,0.1 1,0.1 l 0,0.3 -4.1,0 0,-0.3 c 0.5,0 0.8,-0.1 1,-0.1 0.1,-0.1 0.2,-0.2 0.3,-0.3 0,-0.2 0.1,-0.6 0.1,-1.2 l 0,-5.9 c 0,-0.8 -0.1,-1.3 -0.1,-1.6 -0.1,-0.1 -0.1,-0.3 -0.2,-0.3 -0.1,-0.1 -0.2,-0.2 -0.4,-0.2 -0.2,0 -0.5,0.1 -0.8,0.3 z"
       id="path16046"
       style="fill:#000000" />
  </g>
  <g
     transform="matrix(1.094,0,0,1.094,329,21.5)"
     id="text15891-5-3-9"
     style="font-size:16.5202px;font-style:normal;font-variant:normal;font-weight:normal;font-stretch:normal;text-align:start;line-height:100%;letter-spacing:0px;word-spacing:0px;writing-mode:lr-tb;text-anchor:start;fill:#000000;fill-opacity:1;stroke:none;font-family:Times New Roman;-inkscape-font-specification:'Times New Roman,'">
    <path
       d="m 79.01,125.8 c 0.87,-1.1 1.69,-1.6 2.48,-1.6 0.4,0 0.75,0.1 1.04,0.3 0.29,0.2 0.52,0.5 0.69,1 0.12,0.3 0.18,0.8 0.18,1.5 l 0,3.1 c 0,0.5 0,0.8 0.11,1 0.1,0.1 0.16,0.2 0.29,0.3 0.13,0.1 0.38,0.1 0.73,0.1 l 0,0.3 -3.65,0 0,-0.3 0.15,0 c 0.34,0 0.59,0 0.72,-0.1 0.14,-0.2 0.23,-0.3 0.29,-0.5 0,-0.1 0,-0.3 0,-0.8 l 0,-3 c 0,-0.7 -0.1,-1.2 -0.26,-1.5 -0.18,-0.3 -0.47,-0.4 -0.88,-0.4 -0.64,0 -1.28,0.3 -1.92,1 l 0,3.9 c 0,0.5 0,0.8 0.1,1 0.1,0.1 0.18,0.2 0.31,0.3 0.13,0.1 0.4,0.1 0.81,0.1 l 0,0.3 -3.66,0 0,-0.3 0.16,0 c 0.38,0 0.63,-0.1 0.77,-0.3 0.13,-0.2 0.19,-0.5 0.19,-1.1 l 0,-2.7 c 0,-0.9 0,-1.4 -0.1,-1.6 0,-0.2 -0.1,-0.4 -0.18,-0.4 -0.1,-0.1 -0.2,-0.1 -0.34,-0.1 -0.15,0 -0.33,0 -0.54,0.1 l -0.12,-0.3 2.23,-0.9 0.34,0 z"
       id="path16059"
       style="fill:#000000" />
  </g>
  <path
     d="M 42.83,124.4 101.6,65.7"
     id="path16009"
     style="fill:none;stroke:#ff0000;stroke-width:1.0938px;stroke-linecap:butt;stroke-linejoin:miter;stroke-opacity:1" />
  <path
     d="m 169.6,115.2 178,-58.8"
     id="path16011"
     style="fill:none;stroke:#ff0000;stroke-width:1.0938px;stroke-linecap:butt;stroke-linejoin:miter;stroke-opacity:1" />
  <path
     d="m 364.5,56.4 42.6,60.3"
     id="path16013"
     style="fill:none;stroke:#ff0000;stroke-width:1.0938px;stroke-linecap:butt;stroke-linejoin:miter;stroke-opacity:1" />
  <path
     d="M 485.9,150 613.6,99.7"
     id="path16015"
     style="fill:none;stroke:#ff0000;stroke-width:1.0938px;stroke-linecap:butt;stroke-linejoin:miter;stroke-opacity:1" />
  <path
     d="m 479.8,202.5 68.8,143.2"
     id="path16017"
     style="fill:none;stroke:#ff0000;stroke-width:1.0938px;stroke-linecap:butt;stroke-linejoin:miter;stroke-opacity:1" />
  <path
     d="m 477.5,318.6 57.2,30.9"
     id="path16019"
     style="fill:none;stroke:#ff0000;stroke-width:1.0938px;stroke-linecap:butt;stroke-linejoin:miter;stroke-opacity:1" />
</svg>
